<svg xmlns="http://www.w3.org/2000/svg" xmlns:xlink="http://www.w3.org/1999/xlink" width="1024" height="768" viewBox="0 0 1024 768"><defs><linearGradient id="linear-gradient" x1="272.79" y1="378.51" x2="749.21" y2="378.51" gradientUnits="userSpaceOnUse"><stop offset="0.5"/><stop offset="0.5" stop-color="#494949"/><stop offset="1"/></linearGradient></defs><title>correct</title><g style="isolation:isolate"><g id="Layer_1" data-name="Layer 1"><path d="M511.82,115.49s39.83,8,126.29,30.31c81.66,21,110.29,29.47,110.29,29.47-.19.55,28.26,314.8-236.58,466.26C230,490.07,275.79,176.88,275.23,175.27c0,0,28.63-8.42,110.3-29.47C472,123.52,511.82,115.49,511.82,115.49Z" style="fill:#4a7f00"/><path d="M511.82,115.49s39.83,8,126.29,30.31c81.66,21,110.29,29.47,110.29,29.47-.19.55,28.26,314.8-236.58,466.26C230,490.07,275.79,176.88,275.23,175.27c0,0,28.63-8.42,110.3-29.47C472,123.52,511.82,115.49,511.82,115.49Z" style="mix-blend-mode:screen;fill:url(#linear-gradient)"/><g style="mix-blend-mode:color-burn"><path d="M511.82,156.57c15.42,3.35,53.49,12,116.26,28.14,37.34,9.62,63.56,16.6,80.91,21.31-.71,75.46-20.3,274.73-197.83,388.93C419.78,540,359,459.44,330.37,355.36c-16.59-60.32-18.29-115-17-149,17.33-4.71,43.92-11.8,82.19-21.66,62.77-16.18,100.85-24.79,116.27-28.14m0-41.08s-39.84,8-126.29,30.31c-81.67,21-110.3,29.47-110.3,29.47.56,1.61-45.25,314.8,236.59,466.26C776.66,490.07,748.21,175.82,748.4,175.27c0,0-28.63-8.42-110.29-29.47-86.46-22.28-126.29-30.31-126.29-30.31Z" style="fill:#d9d9d9"/></g><path d="M512,658.76l-7.36-4c-262.33-141-250.29-419.95-244.74-477.66l-4.11-11.88L271,160.82c1.18-.35,29.81-8.74,110.79-29.61,85.86-22.13,125.43-30.16,127.07-30.49l3-.6,3,.6c1.65.33,41.22,8.36,127.08,30.49,81,20.87,109.6,29.26,110.78,29.61l15.18,4.46-4.21,12.1c2.41,43.06,8.67,332.54-244.32,477.23ZM289.34,186.93c-5.06,65.89-6.86,309.07,222.24,437.29C730.26,493.87,735.8,245.59,733.87,186.81c-14.49-4-45.4-12.47-99.52-26.42-72-18.55-111.81-27.24-122.53-29.51-10.73,2.27-50.56,11-122.53,29.51C334.63,174.48,303.65,182.94,289.34,186.93Z" style="fill:#fff"/><polygon points="660.87 288.44 620.61 248.18 472.13 396.66 414.74 339.27 374.48 379.53 431.87 436.92 472.13 477.18 512.39 436.92 512.39 436.92 660.87 288.44" style="fill:#fff"/></g></g></svg>