<svg xmlns="http://www.w3.org/2000/svg" xmlns:xlink="http://www.w3.org/1999/xlink" width="1024" height="768" viewBox="0 0 1024 768"><defs><linearGradient id="linear-gradient" x1="273.18" y1="378.51" x2="749.54" y2="378.51" gradientUnits="userSpaceOnUse"><stop offset="0.5"/><stop offset="0.5" stop-color="#494949"/><stop offset="1"/></linearGradient></defs><title>wrong</title><g style="isolation:isolate"><g id="Layer_2" data-name="Layer 2"><path d="M512.18,115.52s39.83,8,126.28,30.31c81.66,21,110.28,29.46,110.28,29.46-.19.55,28.26,314.77-236.56,466.22-281.81-151.45-236-464.61-236.56-466.22,0,0,28.62-8.42,110.28-29.46C472.35,123.55,512.18,115.52,512.18,115.52Z" style="fill:#b50f00"/><path d="M512.18,115.52s39.83,8,126.28,30.31c81.66,21,110.28,29.46,110.28,29.46-.19.55,28.26,314.77-236.56,466.22-281.81-151.45-236-464.61-236.56-466.22,0,0,28.62-8.42,110.28-29.46C472.35,123.55,512.18,115.52,512.18,115.52Z" style="mix-blend-mode:screen;fill:url(#linear-gradient)"/><g style="mix-blend-mode:color-burn"><path d="M512.18,156.59c15.42,3.36,53.49,12,116.25,28.14,37.34,9.62,63.55,16.6,80.9,21.31-.7,75.45-20.29,274.7-197.8,388.89-91.39-55-152.15-135.49-180.78-239.57-16.58-60.32-18.28-115-17-149,17.32-4.71,43.91-11.8,82.18-21.66,62.76-16.18,100.83-24.78,116.25-28.14m0-41.07s-39.83,8-126.28,30.31c-81.66,21-110.28,29.46-110.28,29.46.56,1.61-45.25,314.77,236.56,466.22C777,490.06,748.55,175.84,748.74,175.29c0,0-28.62-8.42-110.28-29.46C552,123.55,512.18,115.52,512.18,115.52Z" style="fill:#d9d9d9"/></g><path d="M512.4,658.73l-7.35-4c-262.31-141-250.27-419.9-244.72-477.61l-4.11-11.88,15.15-4.45c1.18-.35,29.8-8.73,110.77-29.6C468,109.11,507.56,101.08,509.2,100.75l3-.6,3,.6c1.64.33,41.21,8.36,127.06,30.49,81,20.87,109.59,29.25,110.77,29.6l15.23,4.48L764,177.43c2.41,43.12,8.6,332.52-244.3,477.16ZM289.73,187C284.67,252.83,282.87,496,512,624.2,730.58,493.87,736.13,245.58,734.21,186.83c-14.49-4-45.39-12.47-99.51-26.42-72-18.54-111.8-27.23-122.52-29.5-10.72,2.27-50.56,11-122.52,29.5C335,174.5,304,183,289.73,187Z" style="fill:#fff"/><rect x="480.97" y="236.53" width="56.93" height="239.26" transform="translate(-102.63 464.54) rotate(-45)" style="fill:#fff"/><rect x="389.81" y="327.7" width="239.26" height="56.93" transform="translate(-102.63 464.54) rotate(-45)" style="fill:#fff"/></g></g></svg>